<?xml version="1.0" encoding="UTF-8" ?>
<!DOCTYPE svg PUBLIC "-//W3C//DTD SVG 1.1//EN" "http://www.w3.org/Graphics/SVG/1.1/DTD/svg11.dtd">
<svg width="170pt" height="170pt" viewBox="0 0 170 170" version="1.1" xmlns="http://www.w3.org/2000/svg">
<path fill="#4e6c48" d=" M 0.00 0.00 L 10.13 0.00 C 9.96 6.41 12.45 12.45 12.55 18.82 C 12.69 21.91 13.91 24.80 15.06 27.63 C 13.09 28.81 11.19 30.13 9.41 31.60 C 9.47 30.22 9.53 28.83 9.59 27.45 C 10.41 27.38 11.23 27.30 12.04 27.23 C 10.78 25.77 9.20 24.49 8.39 22.70 C 7.66 19.32 7.70 15.83 7.31 12.41 C 4.55 11.57 1.93 13.16 0.54 15.49 L 0.00 16.36 L 0.00 0.00 Z" />
<path fill="#618268" d=" M 10.13 0.00 L 12.55 0.00 C 12.63 5.58 14.48 10.85 16.67 15.91 C 20.35 11.44 19.70 5.38 20.32 0.00 L 24.66 0.00 C 22.62 8.27 21.11 16.65 20.07 25.11 C 18.36 25.86 16.69 26.71 15.06 27.63 C 13.91 24.80 12.69 21.91 12.55 18.82 C 12.45 12.45 9.96 6.41 10.13 0.00 Z" />
<path fill="#6e9b79" d=" M 12.55 0.00 L 20.32 0.00 C 19.70 5.38 20.35 11.44 16.67 15.91 C 14.48 10.85 12.63 5.58 12.55 0.00 Z" />
<path fill="#566e59" d=" M 24.66 0.00 L 31.98 0.00 C 31.90 3.14 31.97 6.29 32.40 9.40 C 33.62 10.10 34.84 10.80 36.04 11.52 C 35.30 13.96 34.75 16.46 34.30 18.97 C 39.71 19.11 47.19 17.61 49.99 23.71 C 48.56 24.87 47.13 26.04 45.71 27.21 C 38.01 22.77 28.37 21.80 20.07 25.11 C 21.11 16.65 22.62 8.27 24.66 0.00 Z" />
<path fill="#597952" d=" M 31.98 0.00 L 44.86 0.00 C 43.43 2.55 43.24 5.52 42.27 8.23 C 41.12 10.61 38.34 11.00 36.04 11.52 C 34.84 10.80 33.62 10.10 32.40 9.40 C 31.97 6.29 31.90 3.14 31.98 0.00 Z" />
<path fill="#4b6147" d=" M 44.86 0.00 L 66.62 0.00 C 67.07 5.79 69.19 11.28 69.88 17.04 C 70.92 21.35 70.75 26.13 73.29 29.95 C 66.92 31.36 60.72 33.41 54.81 36.18 C 52.98 32.21 49.33 29.46 45.71 27.21 C 47.13 26.04 48.56 24.87 49.99 23.71 C 47.19 17.61 39.71 19.11 34.30 18.97 C 34.75 16.46 35.30 13.96 36.04 11.52 C 38.34 11.00 41.12 10.61 42.27 8.23 C 43.24 5.52 43.43 2.55 44.86 0.00 Z" />
<path fill="#607c64" d=" M 66.62 0.00 L 69.91 0.00 C 69.73 10.08 76.00 19.34 75.42 29.51 C 74.89 29.62 73.82 29.84 73.29 29.95 C 70.75 26.13 70.92 21.35 69.88 17.04 C 69.19 11.28 67.07 5.79 66.62 0.00 Z" />
<path fill="#6c9578" d=" M 69.91 0.00 L 70.66 0.00 C 70.91 3.62 72.98 6.61 75.39 9.17 C 76.26 6.16 76.87 3.09 77.36 0.00 L 83.02 0.00 C 85.15 4.74 84.41 10.00 84.39 15.03 C 84.32 18.65 85.01 22.21 85.64 25.76 C 86.45 25.56 87.25 25.36 88.06 25.16 C 87.92 25.75 87.64 26.92 87.50 27.51 C 83.45 28.01 79.41 28.67 75.42 29.51 C 76.00 19.34 69.73 10.08 69.91 0.00 Z" />
<path fill="#7ca885" d=" M 70.66 0.00 L 77.36 0.00 C 76.87 3.09 76.26 6.16 75.39 9.17 C 72.98 6.61 70.91 3.62 70.66 0.00 Z" />
<path fill="#83ba99" d=" M 83.02 0.00 L 98.23 0.00 C 98.97 0.76 99.71 1.53 100.44 2.31 C 99.52 2.95 98.59 3.59 97.67 4.23 C 99.73 5.05 101.83 5.83 104.04 6.11 C 96.25 9.60 89.85 16.70 88.06 25.16 C 87.25 25.36 86.45 25.56 85.64 25.76 C 85.01 22.21 84.32 18.65 84.39 15.03 C 84.41 10.00 85.15 4.74 83.02 0.00 Z" />
<path fill="#79a68f" d=" M 98.23 0.00 L 106.22 0.00 C 105.74 0.26 104.77 0.78 104.28 1.04 C 104.50 1.41 104.93 2.16 105.14 2.53 C 104.95 2.98 104.75 3.44 104.55 3.90 C 105.02 4.25 105.95 4.94 106.42 5.29 C 105.83 5.49 104.64 5.90 104.04 6.11 C 101.83 5.83 99.73 5.05 97.67 4.23 C 98.59 3.59 99.52 2.95 100.44 2.31 C 99.71 1.53 98.97 0.76 98.23 0.00 Z" />
<path fill="#6c927b" d=" M 106.22 0.00 L 112.37 0.00 C 111.93 0.29 111.05 0.86 110.61 1.15 C 110.84 1.48 111.30 2.14 111.53 2.47 C 111.50 2.92 111.42 3.81 111.39 4.26 C 109.70 4.44 108.04 4.79 106.42 5.29 C 105.95 4.94 105.02 4.25 104.55 3.90 C 104.75 3.44 104.95 2.98 105.14 2.53 C 104.93 2.16 104.50 1.41 104.28 1.04 C 104.77 0.78 105.74 0.26 106.22 0.00 Z" />
<path fill="#576b5d" d=" M 112.37 0.00 L 146.61 0.00 C 146.86 3.71 148.27 7.14 149.51 10.59 C 150.50 12.84 149.13 15.08 148.95 17.33 C 148.98 19.16 149.38 20.95 149.68 22.74 C 147.64 23.63 144.88 26.19 142.81 24.14 C 141.14 21.45 140.02 18.43 138.09 15.89 C 131.98 7.76 121.58 2.90 111.39 4.26 C 111.42 3.81 111.50 2.92 111.53 2.47 C 111.30 2.14 110.84 1.48 110.61 1.15 C 111.05 0.86 111.93 0.29 112.37 0.00 Z" />
<path fill="#4f6948" d=" M 146.61 0.00 L 170.00 0.00 L 170.00 0.54 C 168.08 2.71 168.67 5.64 168.13 8.26 C 167.23 11.02 165.18 13.23 163.13 15.21 C 159.76 18.57 154.96 19.66 150.96 22.05 C 150.64 22.22 150.00 22.57 149.68 22.74 C 149.38 20.95 148.98 19.16 148.95 17.33 C 149.13 15.08 150.50 12.84 149.51 10.59 C 148.27 7.14 146.86 3.71 146.61 0.00 Z" />
<path fill="#bb0807" d=" M 168.13 8.26 C 168.67 5.64 168.08 2.71 170.00 0.54 L 170.00 15.18 C 161.04 23.08 149.96 27.84 139.89 34.07 C 140.40 34.24 141.41 34.58 141.91 34.75 C 148.26 32.37 153.97 26.49 161.21 27.96 C 164.70 29.84 167.18 32.93 170.00 35.63 L 170.00 39.94 C 164.83 38.39 161.67 32.77 155.97 32.62 C 151.08 33.55 146.30 35.06 141.57 36.61 C 140.60 38.34 139.56 40.02 138.48 41.67 C 135.26 41.99 131.95 41.03 128.81 42.02 C 124.67 43.17 120.45 43.98 116.29 45.06 C 116.29 44.28 116.29 42.72 116.29 41.94 C 114.26 43.59 112.53 45.69 110.15 46.84 C 91.82 51.68 73.30 55.80 54.91 60.42 C 52.00 61.19 49.05 61.77 46.05 62.01 C 44.06 61.86 42.07 61.74 40.09 61.64 C 39.93 62.20 39.62 63.32 39.46 63.89 C 35.55 64.93 31.45 65.27 27.71 66.93 C 27.42 67.02 26.85 67.18 26.57 67.27 C 23.64 67.32 20.79 67.96 18.03 68.88 C 18.27 68.20 18.75 66.84 18.99 66.16 C 20.67 63.79 22.30 61.40 23.98 59.04 C 28.49 58.99 32.61 56.94 37.05 56.44 C 42.77 55.10 48.57 54.05 54.17 52.26 C 76.50 47.24 98.79 42.05 121.13 37.07 C 124.16 36.36 127.18 35.47 130.32 35.39 C 130.79 35.39 131.74 35.40 132.22 35.40 C 132.48 33.65 132.43 31.69 133.92 30.45 C 136.29 29.88 138.45 31.27 140.66 31.87 C 140.81 31.20 141.12 29.86 141.27 29.19 C 144.03 26.21 147.49 24.08 150.96 22.05 C 154.96 19.66 159.76 18.57 163.13 15.21 C 165.18 13.23 167.23 11.02 168.13 8.26 Z" />
<path fill="#1f2223" d=" M 106.42 5.29 C 108.04 4.79 109.70 4.44 111.39 4.26 C 121.58 2.90 131.98 7.76 138.09 15.89 C 140.02 18.43 141.14 21.45 142.81 24.14 C 144.88 26.19 147.64 23.63 149.68 22.74 C 150.00 22.57 150.64 22.22 150.96 22.05 C 147.49 24.08 144.03 26.21 141.27 29.19 C 141.12 29.86 140.81 31.20 140.66 31.87 C 138.45 31.27 136.29 29.88 133.92 30.45 C 132.43 31.69 132.48 33.65 132.22 35.40 C 131.74 35.40 130.79 35.39 130.32 35.39 C 130.44 35.20 130.67 34.81 130.79 34.62 C 131.78 32.95 132.80 31.30 133.76 29.62 C 135.39 29.99 137.02 30.34 138.65 30.70 C 139.34 30.01 140.03 29.32 140.71 28.63 C 139.60 18.42 132.09 9.29 122.15 6.55 C 109.47 2.25 94.43 9.97 90.21 22.56 C 89.47 24.08 89.42 25.77 89.46 27.42 C 88.97 27.44 87.99 27.49 87.50 27.51 C 87.64 26.92 87.92 25.75 88.06 25.16 C 89.85 16.70 96.25 9.60 104.04 6.11 C 104.64 5.90 105.83 5.49 106.42 5.29 Z" />
<path fill="#4d4d4d" d=" M 90.21 22.56 C 94.43 9.97 109.47 2.25 122.15 6.55 C 132.09 9.29 139.60 18.42 140.71 28.63 C 140.03 29.32 139.34 30.01 138.65 30.70 C 137.02 30.34 135.39 29.99 133.76 29.62 C 135.30 19.84 126.93 10.18 117.06 10.32 C 107.51 9.72 99.25 17.90 98.36 27.19 C 103.13 26.86 107.86 27.48 112.54 28.38 L 111.70 28.66 C 104.31 27.87 96.91 26.96 89.46 27.42 C 89.42 25.77 89.47 24.08 90.21 22.56 Z" />
<path fill="#040403" d=" M 98.36 27.19 C 99.25 17.90 107.51 9.72 117.06 10.32 C 126.93 10.18 135.30 19.84 133.76 29.62 C 132.80 31.30 131.78 32.95 130.79 34.62 C 127.05 32.58 122.89 31.49 118.83 30.31 C 120.26 28.78 122.22 27.15 121.37 24.81 C 119.44 23.51 117.14 23.38 114.89 23.35 C 113.94 24.22 112.98 25.09 112.01 25.96 C 112.53 26.65 113.06 27.34 113.58 28.03 C 113.32 28.12 112.80 28.29 112.54 28.38 C 107.86 27.48 103.13 26.86 98.36 27.19 Z" />
<path fill="#475a45" d=" M 0.54 15.49 C 1.93 13.16 4.55 11.57 7.31 12.41 C 7.70 15.83 7.66 19.32 8.39 22.70 C 9.20 24.49 10.78 25.77 12.04 27.23 C 11.23 27.30 10.41 27.38 9.59 27.45 C 9.53 28.83 9.47 30.22 9.41 31.60 C 6.29 35.09 3.95 39.20 2.26 43.55 C 0.48 39.20 2.08 34.53 2.03 30.02 C 2.56 25.12 1.79 20.22 0.54 15.49 Z" />
<path fill="#536750" d=" M 0.00 16.36 L 0.54 15.49 C 1.79 20.22 2.56 25.12 2.03 30.02 C 2.08 34.53 0.48 39.20 2.26 43.55 C 1.22 49.34 1.65 55.36 4.24 60.70 C 4.41 64.43 4.20 68.16 3.74 71.86 C 3.37 74.71 5.42 77.03 6.62 79.40 C 8.29 81.94 7.80 85.11 8.09 87.98 C 8.77 87.03 9.46 86.08 10.10 85.11 C 8.51 91.42 8.01 97.99 8.63 104.47 C 8.27 104.47 7.55 104.47 7.19 104.47 C 6.30 103.48 5.43 102.48 4.53 101.50 C 3.02 101.24 1.51 100.99 0.00 100.73 L 0.00 90.36 C 1.86 89.29 4.80 88.57 4.65 85.86 C 5.05 82.74 2.13 80.96 0.00 79.35 L 0.00 16.36 Z" />
<path fill="#1c291d" d=" M 139.89 34.07 C 149.96 27.84 161.04 23.08 170.00 15.18 L 170.00 21.42 C 167.02 23.53 164.07 25.70 161.21 27.96 C 153.97 26.49 148.26 32.37 141.91 34.75 C 141.41 34.58 140.40 34.24 139.89 34.07 Z" />
<path fill="#495e45" d=" M 161.21 27.96 C 164.07 25.70 167.02 23.53 170.00 21.42 L 170.00 35.63 C 167.18 32.93 164.70 29.84 161.21 27.96 Z" />
<path fill="#1f1f1f" d=" M 20.07 25.11 C 28.37 21.80 38.01 22.77 45.71 27.21 C 49.33 29.46 52.98 32.21 54.81 36.18 C 54.26 36.44 53.16 36.95 52.61 37.20 C 49.90 30.70 43.26 27.00 36.72 25.38 C 22.05 21.61 4.42 32.25 3.54 47.98 C 2.48 57.22 8.62 65.60 16.41 69.89 C 16.14 70.35 15.62 71.27 15.35 71.74 C 9.46 71.22 7.26 64.85 4.24 60.70 C 1.65 55.36 1.22 49.34 2.26 43.55 C 3.95 39.20 6.29 35.09 9.41 31.60 C 11.19 30.13 13.09 28.81 15.06 27.63 C 16.69 26.71 18.36 25.86 20.07 25.11 Z" />
<path fill="#343434" d=" M 112.01 25.96 C 112.98 25.09 113.94 24.22 114.89 23.35 C 117.14 23.38 119.44 23.51 121.37 24.81 C 122.22 27.15 120.26 28.78 118.83 30.31 C 116.46 29.72 114.08 29.17 111.70 28.66 L 112.54 28.38 C 112.80 28.29 113.32 28.12 113.58 28.03 C 113.06 27.34 112.53 26.65 112.01 25.96 Z" />
<path fill="#4d4e4e" d=" M 3.54 47.98 C 4.42 32.25 22.05 21.61 36.72 25.38 C 43.26 27.00 49.90 30.70 52.61 37.20 C 50.67 38.16 48.75 39.16 46.86 40.20 C 43.25 34.91 37.76 30.09 30.95 30.39 C 19.48 29.55 8.87 41.02 11.11 52.40 C 11.79 57.46 15.21 61.66 19.44 64.30 C 19.33 64.76 19.11 65.69 18.99 66.16 C 18.75 66.84 18.27 68.20 18.03 68.88 C 20.79 67.96 23.64 67.32 26.57 67.27 C 24.59 67.92 22.58 68.46 20.55 68.92 C 19.17 69.23 17.78 69.55 16.41 69.89 C 8.62 65.60 2.48 57.22 3.54 47.98 Z" />
<path fill="#f0f0f0" d=" M 75.42 29.51 C 79.41 28.67 83.45 28.01 87.50 27.51 C 87.99 27.49 88.97 27.44 89.46 27.42 C 96.91 26.96 104.31 27.87 111.70 28.66 C 114.08 29.17 116.46 29.72 118.83 30.31 C 122.89 31.49 127.05 32.58 130.79 34.62 C 130.67 34.81 130.44 35.20 130.32 35.39 C 127.18 35.47 124.16 36.36 121.13 37.07 C 98.79 42.05 76.50 47.24 54.17 52.26 C 44.30 54.29 34.56 57.17 24.58 58.47 C 25.84 57.00 27.13 55.56 28.52 54.22 C 29.30 53.47 30.08 52.72 30.86 51.97 C 31.21 51.63 31.56 51.30 31.91 50.97 C 33.38 49.61 34.95 48.35 36.53 47.12 C 39.76 44.51 43.24 42.23 46.86 40.20 C 48.75 39.16 50.67 38.16 52.61 37.20 C 53.16 36.95 54.26 36.44 54.81 36.18 C 60.72 33.41 66.92 31.36 73.29 29.95 C 73.82 29.84 74.89 29.62 75.42 29.51 Z" />
<path fill="#030303" d=" M 11.11 52.40 C 8.87 41.02 19.48 29.55 30.95 30.39 C 37.76 30.09 43.25 34.91 46.86 40.20 C 43.24 42.23 39.76 44.51 36.53 47.12 C 35.87 46.79 35.21 46.45 34.55 46.12 C 34.99 45.36 35.42 44.61 35.85 43.85 C 33.14 42.22 29.97 41.85 26.89 41.55 C 24.21 43.16 23.25 46.14 22.54 49.00 C 23.97 51.33 26.03 53.10 28.52 54.22 C 27.13 55.56 25.84 57.00 24.58 58.47 C 34.56 57.17 44.30 54.29 54.17 52.26 C 48.57 54.05 42.77 55.10 37.05 56.44 C 32.61 56.94 28.49 58.99 23.98 59.04 C 22.30 61.40 20.67 63.79 18.99 66.16 C 19.11 65.69 19.33 64.76 19.44 64.30 C 15.21 61.66 11.79 57.46 11.11 52.40 Z" />
<path fill="#29332c" d=" M 141.57 36.61 C 146.30 35.06 151.08 33.55 155.97 32.62 C 161.67 32.77 164.83 38.39 170.00 39.94 L 170.00 42.61 C 166.61 41.31 163.85 38.57 160.39 37.59 C 155.02 38.40 147.86 37.30 144.55 42.60 C 143.30 41.65 142.00 40.78 140.72 39.88 C 139.75 40.68 138.76 41.46 137.88 42.36 C 135.89 42.63 133.89 42.43 131.97 41.82 C 125.98 43.11 120.01 44.59 114.06 46.02 C 108.67 49.88 104.14 54.89 99.30 59.42 C 96.87 61.68 94.31 63.79 91.66 65.78 C 91.28 64.78 91.51 63.99 92.33 63.41 C 98.56 58.22 104.54 52.70 110.15 46.84 C 112.53 45.69 114.26 43.59 116.29 41.94 C 116.29 42.72 116.29 44.28 116.29 45.06 C 120.45 43.98 124.67 43.17 128.81 42.02 C 131.95 41.03 135.26 41.99 138.48 41.67 C 139.56 40.02 140.60 38.34 141.57 36.61 Z" />
<path fill="#4e5f4b" d=" M 160.39 37.59 C 163.85 38.57 166.61 41.31 170.00 42.61 L 170.00 74.65 C 166.81 69.19 163.92 63.55 160.86 58.01 C 159.72 55.73 158.39 51.63 155.03 52.95 C 152.00 49.05 148.41 45.66 144.55 42.60 C 147.86 37.30 155.02 38.40 160.39 37.59 Z" />
<path fill="#e9e9e9" d=" M 137.88 42.36 C 138.76 41.46 139.75 40.68 140.72 39.88 C 142.00 40.78 143.30 41.65 144.55 42.60 C 148.41 45.66 152.00 49.05 155.03 52.95 C 160.79 59.88 164.49 68.52 165.86 77.40 C 167.24 77.96 168.63 78.50 170.00 79.07 L 170.00 107.17 C 168.73 106.73 167.44 106.37 166.23 105.80 C 165.42 103.63 165.69 101.25 165.54 98.98 C 163.95 103.63 162.23 108.28 159.54 112.42 C 155.78 118.28 152.52 124.62 147.27 129.33 C 139.85 137.16 130.40 142.57 121.00 147.65 C 120.76 147.12 120.29 146.07 120.05 145.55 C 122.00 144.18 124.37 143.59 126.35 142.27 C 128.65 140.23 129.85 137.16 132.51 135.48 C 137.80 131.97 140.05 125.66 142.00 119.92 C 142.47 117.60 144.85 116.69 146.57 115.43 C 146.87 112.63 146.85 109.80 147.12 106.99 C 147.61 104.27 149.31 101.82 149.10 98.96 C 149.05 94.30 148.95 89.65 149.11 84.99 C 149.69 79.25 145.57 74.33 146.48 68.55 C 144.85 67.21 142.47 66.32 142.00 64.04 C 140.32 58.43 137.63 52.83 133.22 48.88 C 129.77 47.67 126.13 47.02 122.89 45.25 C 124.63 45.36 126.37 45.50 128.11 45.64 C 128.31 45.28 128.71 44.57 128.91 44.22 C 131.51 44.09 134.11 44.06 136.71 43.83 C 137.00 43.46 137.59 42.73 137.88 42.36 Z" />
<path fill="#1f1f1f" d=" M 22.54 49.00 C 23.25 46.14 24.21 43.16 26.89 41.55 C 29.97 41.85 33.14 42.22 35.85 43.85 C 35.42 44.61 34.99 45.36 34.55 46.12 C 35.21 46.45 35.87 46.79 36.53 47.12 C 34.95 48.35 33.38 49.61 31.91 50.97 C 30.99 49.62 32.20 48.27 32.59 47.00 C 31.52 46.23 30.49 45.07 29.02 45.33 C 27.10 45.10 26.44 47.22 25.34 48.35 C 26.81 50.07 28.62 51.45 30.86 51.97 C 30.08 52.72 29.30 53.47 28.52 54.22 C 26.03 53.10 23.97 51.33 22.54 49.00 Z" />
<path fill="#f2f2f2" d=" M 114.06 46.02 C 120.01 44.59 125.98 43.11 131.97 41.82 C 133.89 42.43 135.89 42.63 137.88 42.36 C 137.59 42.73 137.00 43.46 136.71 43.83 C 134.11 44.06 131.51 44.09 128.91 44.22 C 128.71 44.57 128.31 45.28 128.11 45.64 C 126.37 45.50 124.63 45.36 122.89 45.25 C 126.13 47.02 129.77 47.67 133.22 48.88 C 137.63 52.83 140.32 58.43 142.00 64.04 C 142.47 66.32 144.85 67.21 146.48 68.55 C 145.57 74.33 149.69 79.25 149.11 84.99 C 148.95 89.65 149.05 94.30 149.10 98.96 C 149.31 101.82 147.61 104.27 147.12 106.99 C 146.85 109.80 146.87 112.63 146.57 115.43 C 144.85 116.69 142.47 117.60 142.00 119.92 C 140.05 125.66 137.80 131.97 132.51 135.48 C 129.85 137.16 128.65 140.23 126.35 142.27 C 124.37 143.59 122.00 144.18 120.05 145.55 C 120.29 146.07 120.76 147.12 121.00 147.65 C 110.11 153.40 97.92 155.98 85.95 158.37 C 87.50 159.15 89.06 159.91 90.63 160.67 C 91.01 163.77 90.98 166.90 90.67 170.00 L 53.13 170.00 C 53.62 166.89 53.94 163.75 54.44 160.64 C 55.88 159.74 57.30 158.82 58.71 157.87 C 57.50 156.85 55.66 156.08 55.91 154.18 C 65.91 153.51 75.79 157.34 85.81 155.65 C 81.55 153.29 76.97 151.62 72.02 151.85 C 67.74 150.11 63.38 148.54 59.04 146.95 C 54.13 143.56 48.94 140.56 44.56 136.46 C 40.22 133.61 37.73 128.93 35.59 124.36 C 33.64 119.79 29.40 116.50 28.46 111.46 C 25.13 103.68 25.42 95.03 26.71 86.83 C 27.40 82.86 25.53 78.57 27.73 74.87 C 28.35 72.95 30.25 72.10 31.84 71.14 C 28.02 70.88 23.84 71.29 20.55 68.92 C 22.58 68.46 24.59 67.92 26.57 67.27 C 26.85 67.18 27.42 67.02 27.71 66.93 C 32.07 65.81 36.52 65.04 40.81 63.65 C 40.69 64.66 40.57 65.68 40.45 66.69 C 43.01 66.60 45.99 65.76 48.18 67.55 C 47.45 67.74 45.97 68.13 45.24 68.33 C 45.96 68.73 46.67 69.13 47.39 69.53 C 47.77 70.71 48.14 71.89 48.52 73.07 C 46.87 73.19 45.23 73.31 43.58 73.42 C 43.69 74.23 43.79 75.04 43.90 75.86 C 42.97 75.82 42.04 75.78 41.11 75.75 C 40.81 76.52 40.50 77.29 40.19 78.06 C 40.37 78.50 40.72 79.37 40.89 79.81 C 41.95 79.17 43.00 78.52 44.06 77.88 C 44.59 78.19 45.66 78.82 46.20 79.14 C 41.57 84.99 40.77 93.72 44.98 100.01 C 49.65 107.96 60.67 110.46 68.67 106.20 C 68.91 106.77 69.39 107.89 69.63 108.46 C 65.83 109.32 64.09 113.08 62.19 116.07 C 58.16 123.09 60.70 132.30 66.31 137.68 C 71.44 141.93 79.11 142.83 85.06 139.79 C 87.94 144.62 92.93 148.14 98.70 148.22 C 105.83 147.34 112.22 140.89 111.67 133.44 C 117.77 132.92 124.10 129.44 126.47 123.56 C 128.73 118.67 128.24 112.83 125.92 108.06 C 123.87 102.88 118.39 100.19 113.33 98.80 C 110.75 98.09 110.14 101.34 109.15 102.98 C 109.86 100.55 109.70 98.01 109.46 95.52 C 118.50 98.89 129.28 93.68 132.80 84.83 C 135.33 79.55 134.51 73.29 131.87 68.23 C 129.83 64.49 126.48 61.60 122.60 59.88 C 115.94 57.11 107.85 58.48 102.47 63.28 C 101.41 61.99 100.36 60.71 99.30 59.42 C 104.14 54.89 108.67 49.88 114.06 46.02 Z" />
<path fill="#3e3e3e" d=" M 25.34 48.35 C 26.44 47.22 27.10 45.10 29.02 45.33 C 30.49 45.07 31.52 46.23 32.59 47.00 C 32.20 48.27 30.99 49.62 31.91 50.97 C 31.56 51.30 31.21 51.63 30.86 51.97 C 28.62 51.45 26.81 50.07 25.34 48.35 Z" />
<path fill="#fdfdfd" d=" M 54.91 60.42 C 73.30 55.80 91.82 51.68 110.15 46.84 C 104.54 52.70 98.56 58.22 92.33 63.41 C 91.51 63.99 91.28 64.78 91.66 65.78 C 94.31 63.79 96.87 61.68 99.30 59.42 C 100.36 60.71 101.41 61.99 102.47 63.28 C 94.24 70.30 94.14 84.17 102.19 91.36 C 100.13 91.89 98.10 92.53 96.09 93.25 C 95.57 93.37 94.51 93.61 93.99 93.72 C 89.44 94.79 84.93 96.01 80.36 96.99 C 79.42 97.11 77.53 97.34 76.59 97.46 C 78.30 93.50 78.83 88.91 77.08 84.87 C 75.73 80.75 72.84 77.29 69.15 75.05 C 67.23 73.85 65.03 73.25 62.83 72.84 C 56.65 71.86 50.30 74.51 46.20 79.14 C 45.66 78.82 44.59 78.19 44.06 77.88 C 43.00 78.52 41.95 79.17 40.89 79.81 C 40.72 79.37 40.37 78.50 40.19 78.06 C 40.50 77.29 40.81 76.52 41.11 75.75 C 42.04 75.78 42.97 75.82 43.90 75.86 C 43.79 75.04 43.69 74.23 43.58 73.42 C 45.23 73.31 46.87 73.19 48.52 73.07 C 48.14 71.89 47.77 70.71 47.39 69.53 C 46.67 69.13 45.96 68.73 45.24 68.33 C 45.97 68.13 47.45 67.74 48.18 67.55 C 45.99 65.76 43.01 66.60 40.45 66.69 C 40.57 65.68 40.69 64.66 40.81 63.65 C 43.24 63.25 45.58 64.16 47.94 64.59 C 55.96 66.24 64.00 67.80 72.02 69.49 C 73.39 69.89 74.91 69.74 75.93 68.66 C 66.04 66.13 55.83 64.94 46.05 62.01 C 49.05 61.77 52.00 61.19 54.91 60.42 Z" />
<path fill="#3b4736" d=" M 155.03 52.95 C 158.39 51.63 159.72 55.73 160.86 58.01 C 163.92 63.55 166.81 69.19 170.00 74.65 L 170.00 79.07 C 168.63 78.50 167.24 77.96 165.86 77.40 C 164.49 68.52 160.79 59.88 155.03 52.95 Z" />
<path fill="#080808" d=" M 102.47 63.28 C 107.85 58.48 115.94 57.11 122.60 59.88 C 120.98 62.15 118.27 60.74 116.01 60.75 C 111.10 60.28 106.74 62.89 102.89 65.61 C 103.58 66.03 104.95 66.87 105.64 67.29 C 99.92 69.85 96.66 77.05 99.31 82.90 C 101.35 88.76 108.10 91.82 113.98 90.36 C 114.11 90.72 114.37 91.44 114.50 91.80 C 112.55 92.33 110.61 92.91 108.69 93.55 C 114.59 93.63 121.67 94.99 126.22 90.19 C 129.21 86.89 132.62 82.80 131.79 78.00 C 131.84 74.75 129.77 71.20 131.87 68.23 C 134.51 73.29 135.33 79.55 132.80 84.83 C 129.28 93.68 118.50 98.89 109.46 95.52 C 109.70 98.01 109.86 100.55 109.15 102.98 C 108.82 103.65 108.15 105.00 107.82 105.67 C 106.06 108.65 103.36 110.85 100.63 112.89 C 101.19 111.92 101.87 111.04 102.58 110.19 C 102.81 106.45 102.73 102.69 102.41 98.96 C 101.07 97.73 99.83 96.38 99.19 94.65 C 97.44 94.47 95.69 94.18 93.99 93.72 C 94.51 93.61 95.57 93.37 96.09 93.25 C 98.10 92.53 100.13 91.89 102.19 91.36 C 94.14 84.17 94.24 70.30 102.47 63.28 Z" />
<path fill="#1c1c1c" d=" M 102.89 65.61 C 106.74 62.89 111.10 60.28 116.01 60.75 C 118.27 60.74 120.98 62.15 122.60 59.88 C 126.48 61.60 129.83 64.49 131.87 68.23 C 129.77 71.20 131.84 74.75 131.79 78.00 C 132.62 82.80 129.21 86.89 126.22 90.19 C 121.67 94.99 114.59 93.63 108.69 93.55 C 110.61 92.91 112.55 92.33 114.50 91.80 C 114.37 91.44 114.11 90.72 113.98 90.36 C 115.54 89.61 117.10 88.83 118.52 87.83 C 119.18 88.09 120.49 88.62 121.14 88.88 C 125.35 87.48 127.30 83.27 129.68 79.90 C 128.93 76.64 127.90 73.45 126.71 70.32 C 126.20 70.64 125.69 70.96 125.19 71.28 C 123.84 68.76 121.89 66.63 119.13 65.69 C 117.99 66.26 116.85 66.82 115.70 67.38 C 112.55 65.92 108.84 66.05 105.64 67.29 C 104.95 66.87 103.58 66.03 102.89 65.61 Z" />
<path fill="#49564a" d=" M 4.24 60.70 C 7.26 64.85 9.46 71.22 15.35 71.74 C 13.10 75.97 11.26 80.44 10.10 85.11 C 9.46 86.08 8.77 87.03 8.09 87.98 C 7.80 85.11 8.29 81.94 6.62 79.40 C 5.42 77.03 3.37 74.71 3.74 71.86 C 4.20 68.16 4.41 64.43 4.24 60.70 Z" />
<path fill="#070707" d=" M 40.09 61.64 C 42.07 61.74 44.06 61.86 46.05 62.01 C 55.83 64.94 66.04 66.13 75.93 68.66 C 74.91 69.74 73.39 69.89 72.02 69.49 C 64.00 67.80 55.96 66.24 47.94 64.59 C 45.58 64.16 43.24 63.25 40.81 63.65 C 36.52 65.04 32.07 65.81 27.71 66.93 C 31.45 65.27 35.55 64.93 39.46 63.89 C 39.62 63.32 39.93 62.20 40.09 61.64 Z" />
<path fill="#f7f7f7" d=" M 105.64 67.29 C 108.84 66.05 112.55 65.92 115.70 67.38 C 119.51 69.54 122.93 73.32 122.74 77.97 C 123.12 81.77 121.11 85.23 118.52 87.83 C 117.10 88.83 115.54 89.61 113.98 90.36 C 108.10 91.82 101.35 88.76 99.31 82.90 C 96.66 77.05 99.92 69.85 105.64 67.29 Z" />
<path fill="#353535" d=" M 115.70 67.38 C 116.85 66.82 117.99 66.26 119.13 65.69 C 121.89 66.63 123.84 68.76 125.19 71.28 C 125.69 70.96 126.20 70.64 126.71 70.32 C 127.90 73.45 128.93 76.64 129.68 79.90 C 127.30 83.27 125.35 87.48 121.14 88.88 C 120.49 88.62 119.18 88.09 118.52 87.83 C 121.11 85.23 123.12 81.77 122.74 77.97 C 122.93 73.32 119.51 69.54 115.70 67.38 Z" />
<path fill="#e9e9e9" d=" M 16.41 69.89 C 17.78 69.55 19.17 69.23 20.55 68.92 C 23.84 71.29 28.02 70.88 31.84 71.14 C 30.25 72.10 28.35 72.95 27.73 74.87 C 25.53 78.57 27.40 82.86 26.71 86.83 C 25.42 95.03 25.13 103.68 28.46 111.46 C 29.40 116.50 33.64 119.79 35.59 124.36 C 37.73 128.93 40.22 133.61 44.56 136.46 C 48.94 140.56 54.13 143.56 59.04 146.95 C 63.38 148.54 67.74 150.11 72.02 151.85 C 76.97 151.62 81.55 153.29 85.81 155.65 C 75.79 157.34 65.91 153.51 55.91 154.18 C 55.66 156.08 57.50 156.85 58.71 157.87 C 57.30 158.82 55.88 159.74 54.44 160.64 C 53.94 163.75 53.62 166.89 53.13 170.00 L 37.17 170.00 C 37.08 164.93 37.24 159.86 37.68 154.81 C 38.05 153.39 38.39 151.96 38.72 150.54 C 39.62 149.97 40.52 149.41 41.41 148.84 C 33.13 144.05 25.08 138.48 19.24 130.77 C 14.34 124.20 10.79 116.58 9.24 108.52 C 9.02 107.17 8.80 105.82 8.63 104.47 C 8.01 97.99 8.51 91.42 10.10 85.11 C 11.26 80.44 13.10 75.97 15.35 71.74 C 15.62 71.27 16.14 70.35 16.41 69.89 Z" />
<path fill="#242424" d=" M 107.18 72.09 C 113.51 69.83 120.15 77.62 116.59 83.46 C 114.13 88.96 105.45 89.39 102.51 84.14 C 99.53 79.87 102.23 73.32 107.18 72.09 Z" />
<path fill="#020202" d=" M 46.20 79.14 C 50.30 74.51 56.65 71.86 62.83 72.84 C 64.17 73.58 65.46 74.37 66.76 75.17 C 61.88 75.48 56.51 74.52 52.08 77.09 C 49.36 80.08 45.47 82.69 44.84 86.98 C 44.19 90.28 45.37 93.54 46.07 96.73 C 46.91 100.12 50.37 101.61 52.22 104.33 C 52.74 104.18 53.25 104.03 53.77 103.88 C 56.55 105.80 59.89 106.15 63.17 105.71 C 61.88 105.33 60.58 104.98 59.28 104.63 C 59.47 104.28 59.84 103.59 60.03 103.24 C 65.37 104.49 71.47 101.94 73.89 96.93 C 77.34 91.07 74.25 82.98 68.25 80.16 C 68.82 79.77 69.96 78.99 70.54 78.59 C 69.68 77.96 68.83 77.32 67.97 76.69 C 68.27 76.28 68.85 75.46 69.15 75.05 C 72.84 77.29 75.73 80.75 77.08 84.87 C 77.61 91.26 76.30 97.52 74.88 103.70 C 75.75 107.51 75.52 113.29 79.91 114.85 L 80.05 115.39 C 79.24 115.35 77.62 115.29 76.80 115.25 C 73.90 113.64 71.00 111.62 69.63 108.46 C 69.39 107.89 68.91 106.77 68.67 106.20 C 60.67 110.46 49.65 107.96 44.98 100.01 C 40.77 93.72 41.57 84.99 46.20 79.14 Z" />
<path fill="#242424" d=" M 62.83 72.84 C 65.03 73.25 67.23 73.85 69.15 75.05 C 68.85 75.46 68.27 76.28 67.97 76.69 C 68.83 77.32 69.68 77.96 70.54 78.59 C 69.96 78.99 68.82 79.77 68.25 80.16 C 64.60 78.92 60.23 78.64 56.88 80.82 C 52.48 83.37 49.76 89.00 51.20 93.99 C 52.04 98.46 55.91 101.76 60.03 103.24 C 59.84 103.59 59.47 104.28 59.28 104.63 C 60.58 104.98 61.88 105.33 63.17 105.71 C 59.89 106.15 56.55 105.80 53.77 103.88 C 53.25 104.03 52.74 104.18 52.22 104.33 C 50.37 101.61 46.91 100.12 46.07 96.73 C 45.37 93.54 44.19 90.28 44.84 86.98 C 45.47 82.69 49.36 80.08 52.08 77.09 C 56.51 74.52 61.88 75.48 66.76 75.17 C 65.46 74.37 64.17 73.58 62.83 72.84 Z" />
<path fill="#f7f7f7" d=" M 110.98 76.29 C 111.86 76.76 113.34 76.65 113.39 78.01 C 112.37 79.60 110.63 81.01 108.64 80.81 C 107.25 78.80 110.45 77.94 110.98 76.29 Z" />
<path fill="#fcfcfc" d=" M 56.88 80.82 C 60.23 78.64 64.60 78.92 68.25 80.16 C 74.25 82.98 77.34 91.07 73.89 96.93 C 71.47 101.94 65.37 104.49 60.03 103.24 C 55.91 101.76 52.04 98.46 51.20 93.99 C 49.76 89.00 52.48 83.37 56.88 80.82 Z" />
<path fill="#697c61" d=" M 0.00 79.35 C 2.13 80.96 5.05 82.74 4.65 85.86 C 4.80 88.57 1.86 89.29 0.00 90.36 L 0.00 79.35 Z" />
<path fill="#040403" d=" M 60.91 84.73 C 62.62 84.34 64.33 83.97 66.06 83.69 C 69.24 84.75 72.60 87.18 72.80 90.82 C 73.59 95.34 69.68 100.08 65.02 99.81 C 60.60 100.12 57.17 96.13 56.70 92.01 C 56.99 89.00 58.62 86.59 60.91 84.73 Z" />
<path fill="#3a3a3a" d=" M 77.08 84.87 C 78.83 88.91 78.30 93.50 76.59 97.46 C 77.53 97.34 79.42 97.11 80.36 96.99 C 79.25 99.33 77.71 101.68 77.65 104.35 C 78.10 107.91 79.35 111.31 79.91 114.85 C 75.52 113.29 75.75 107.51 74.88 103.70 C 76.30 97.52 77.61 91.26 77.08 84.87 Z" />
<path fill="#242424" d=" M 59.78 95.01 C 57.23 91.30 60.31 85.41 64.96 86.04 C 65.21 86.51 65.72 87.45 65.98 87.92 C 66.17 88.29 66.56 89.03 66.76 89.40 C 65.77 89.16 64.79 88.93 63.81 88.68 C 63.03 89.57 62.21 90.43 61.55 91.42 C 61.35 92.82 62.19 94.13 62.49 95.47 C 64.70 95.48 67.05 95.03 68.50 93.20 C 68.09 92.52 67.68 91.84 67.28 91.17 C 67.59 90.84 68.22 90.17 68.54 89.84 C 68.76 89.58 69.21 89.07 69.44 88.82 C 71.19 90.13 70.93 92.44 70.54 94.33 C 69.09 98.79 61.85 99.26 59.78 95.01 Z" />
<path fill="#fdfdfd" d=" M 65.98 87.92 C 66.49 87.54 67.50 86.76 68.01 86.38 C 68.43 87.20 69.53 87.82 69.44 88.82 C 69.21 89.07 68.76 89.58 68.54 89.84 C 67.94 89.70 67.35 89.55 66.76 89.40 C 66.56 89.03 66.17 88.29 65.98 87.92 Z" />
<path fill="#595959" d=" M 63.81 88.68 C 64.79 88.93 65.77 89.16 66.76 89.40 C 67.35 89.55 67.94 89.70 68.54 89.84 C 68.22 90.17 67.59 90.84 67.28 91.17 C 67.68 91.84 68.09 92.52 68.50 93.20 C 67.05 95.03 64.70 95.48 62.49 95.47 C 62.19 94.13 61.35 92.82 61.55 91.42 C 62.21 90.43 63.03 89.57 63.81 88.68 Z" />
<path fill="#646464" d=" M 80.36 96.99 C 84.93 96.01 89.44 94.79 93.99 93.72 C 95.69 94.18 97.44 94.47 99.19 94.65 C 99.83 96.38 101.07 97.73 102.41 98.96 C 102.73 102.69 102.81 106.45 102.58 110.19 C 101.87 111.04 101.19 111.92 100.63 112.89 C 100.51 113.01 100.26 113.26 100.14 113.38 C 93.18 117.09 84.12 118.90 76.80 115.25 C 77.62 115.29 79.24 115.35 80.05 115.39 L 79.91 114.85 C 79.35 111.31 78.10 107.91 77.65 104.35 C 77.71 101.68 79.25 99.33 80.36 96.99 Z" />
<path fill="#e0e0e0" d=" M 109.15 102.98 C 110.14 101.34 110.75 98.09 113.33 98.80 C 118.39 100.19 123.87 102.88 125.92 108.06 C 128.24 112.83 128.73 118.67 126.47 123.56 C 124.10 129.44 117.77 132.92 111.67 133.44 C 111.43 133.45 110.94 133.47 110.70 133.48 C 109.49 133.23 108.29 132.94 107.09 132.63 C 107.05 135.26 107.22 138.14 105.23 140.17 C 105.99 137.76 106.40 135.25 105.76 132.77 C 101.15 131.48 97.36 128.20 94.90 124.17 C 95.04 128.81 92.74 132.88 90.05 136.48 C 88.90 137.73 87.57 138.78 86.19 139.76 C 85.81 139.76 85.43 139.77 85.06 139.79 C 79.11 142.83 71.44 141.93 66.31 137.68 C 60.70 132.30 58.16 123.09 62.19 116.07 C 64.09 113.08 65.83 109.32 69.63 108.46 C 71.00 111.62 73.90 113.64 76.80 115.25 C 84.12 118.90 93.18 117.09 100.14 113.38 C 102.00 116.60 101.83 122.01 106.43 122.52 C 106.01 122.99 105.60 123.46 105.20 123.94 C 103.05 126.01 107.91 126.93 106.96 124.19 C 109.21 125.09 111.45 127.29 114.04 126.18 C 119.03 124.07 121.99 118.05 120.36 112.80 C 119.67 108.07 114.45 106.66 110.86 104.64 C 109.89 105.11 108.89 105.51 107.82 105.67 C 108.15 105.00 108.82 103.65 109.15 102.98 Z" />
<path fill="#fdfdfd" d=" M 159.54 112.42 C 162.23 108.28 163.95 103.63 165.54 98.98 C 165.69 101.25 165.42 103.63 166.23 105.80 C 167.44 106.37 168.73 106.73 170.00 107.17 L 170.00 170.00 L 147.86 170.00 C 138.85 163.26 126.73 161.29 115.84 163.74 C 111.08 164.86 105.86 166.17 102.50 170.00 L 90.67 170.00 C 90.98 166.90 91.01 163.77 90.63 160.67 C 89.06 159.91 87.50 159.15 85.95 158.37 C 97.92 155.98 110.11 153.40 121.00 147.65 C 130.40 142.57 139.85 137.16 147.27 129.33 C 152.52 124.62 155.78 118.28 159.54 112.42 Z" />
<path fill="#607d58" d=" M 0.00 100.73 C 1.51 100.99 3.02 101.24 4.53 101.50 C 5.43 102.48 6.30 103.48 7.19 104.47 C 7.55 104.47 8.27 104.47 8.63 104.47 C 8.80 105.82 9.02 107.17 9.24 108.52 C 6.99 111.28 8.88 114.69 9.31 117.73 C 9.91 120.22 8.57 122.73 9.27 125.22 C 10.90 131.40 11.78 137.75 13.18 143.98 C 8.78 143.59 4.38 143.28 0.00 142.71 L 0.00 100.73 Z" />
<path fill="#cdcdcd" d=" M 110.86 104.64 C 114.45 106.66 119.67 108.07 120.36 112.80 C 121.99 118.05 119.03 124.07 114.04 126.18 C 111.45 127.29 109.21 125.09 106.96 124.19 C 106.52 124.13 105.64 124.00 105.20 123.94 C 105.60 123.46 106.01 122.99 106.43 122.52 C 101.83 122.01 102.00 116.60 100.14 113.38 C 100.26 113.26 100.51 113.01 100.63 112.89 C 103.36 110.85 106.06 108.65 107.82 105.67 C 108.89 105.51 109.89 105.11 110.86 104.64 Z" />
<path fill="#545b56" d=" M 9.31 117.73 C 8.88 114.69 6.99 111.28 9.24 108.52 C 10.79 116.58 14.34 124.20 19.24 130.77 C 25.08 138.48 33.13 144.05 41.41 148.84 C 40.52 149.41 39.62 149.97 38.72 150.54 C 38.39 151.96 38.05 153.39 37.68 154.81 C 36.59 156.44 35.90 158.28 35.39 160.17 C 35.21 159.42 34.84 157.92 34.65 157.17 C 34.38 157.94 34.11 158.70 33.84 159.46 C 30.67 158.32 27.38 157.54 24.02 157.25 C 15.97 156.45 8.09 154.48 0.00 154.02 L 0.00 150.02 C 3.93 150.12 7.90 149.79 11.80 150.44 C 17.38 151.62 23.12 151.41 28.70 152.62 C 30.41 153.14 31.94 152.39 32.96 151.01 C 31.81 149.40 30.64 147.82 29.39 146.30 C 25.86 142.13 23.51 136.88 18.76 133.86 C 18.42 134.16 17.75 134.74 17.41 135.04 C 17.75 138.27 17.92 141.51 17.79 144.76 C 16.25 144.48 14.72 144.19 13.18 143.98 C 11.78 137.75 10.90 131.40 9.27 125.22 C 8.57 122.73 9.91 120.22 9.31 117.73 Z" />
<path fill="#bcbcbc" d=" M 105.39 114.60 C 107.22 113.41 108.81 111.93 110.08 110.14 C 111.01 112.18 113.79 112.46 114.43 114.69 C 115.52 116.98 113.34 119.07 112.06 120.75 C 109.67 120.56 107.32 120.11 105.07 119.29 C 105.58 118.68 106.10 118.07 106.61 117.46 C 106.13 116.67 104.06 115.54 105.39 114.60 Z" />
<path fill="#c7c7c7" d=" M 68.90 118.83 C 70.17 117.36 71.80 114.27 74.09 115.85 C 77.90 117.80 82.33 117.94 86.12 119.87 C 86.10 120.36 86.04 121.34 86.02 121.83 L 84.83 121.74 C 86.42 118.78 81.51 119.98 84.05 122.02 C 85.45 123.97 87.54 126.53 86.47 129.04 C 85.83 128.12 85.19 127.19 84.57 126.26 C 84.38 126.74 84.00 127.69 83.81 128.16 C 83.37 128.36 82.49 128.76 82.05 128.96 C 81.85 129.45 81.43 130.41 81.22 130.90 C 82.51 131.22 83.80 131.50 85.09 131.76 C 84.27 132.78 82.96 133.04 81.78 133.44 C 81.48 133.27 80.87 132.94 80.56 132.77 C 77.18 134.65 72.60 133.89 70.19 130.79 C 67.75 127.36 67.58 122.73 68.90 118.83 Z" />
<path fill="#6b6b6b" d=" M 106.23 115.15 C 106.82 115.77 106.82 115.77 106.23 115.15 Z" />
<path fill="#b0b0b0" d=" M 98.48 116.16 C 99.92 115.76 100.46 116.24 100.10 117.61 C 98.68 117.98 98.14 117.50 98.48 116.16 Z" />
<path fill="#949494" d=" M 84.05 122.02 C 81.51 119.98 86.42 118.78 84.83 121.74 L 84.05 122.02 Z" />
<path fill="#a4a4a4" d=" M 76.21 123.72 C 73.76 122.27 77.15 120.04 78.87 121.02 C 79.26 122.67 78.08 125.33 76.21 123.72 Z" />
<path fill="#020604" d=" M 90.05 136.48 C 92.74 132.88 95.04 128.81 94.90 124.17 C 97.36 128.20 101.15 131.48 105.76 132.77 C 106.40 135.25 105.99 137.76 105.23 140.17 C 103.78 142.90 100.74 145.09 97.54 144.26 C 93.89 143.22 91.01 140.13 90.05 136.48 Z" />
<path fill="#a0a0a0" d=" M 105.20 123.94 C 105.64 124.00 106.52 124.13 106.96 124.19 C 107.91 126.93 103.05 126.01 105.20 123.94 Z" />
<path fill="#868686" d=" M 82.05 128.96 C 82.49 128.76 83.37 128.36 83.81 128.16 L 83.72 128.99 C 83.30 128.98 82.47 128.97 82.05 128.96 Z" />
<path fill="#faf1f8" d=" M 107.09 132.63 C 108.29 132.94 109.49 133.23 110.70 133.48 C 111.90 141.77 102.36 150.09 94.40 146.74 C 90.80 145.70 87.81 143.13 86.19 139.76 C 87.57 138.78 88.90 137.73 90.05 136.48 C 91.01 140.13 93.89 143.22 97.54 144.26 C 100.74 145.09 103.78 142.90 105.23 140.17 C 107.22 138.14 107.05 135.26 107.09 132.63 Z" />
<path fill="#576b5d" d=" M 110.70 133.48 C 110.94 133.47 111.43 133.45 111.67 133.44 C 112.22 140.89 105.83 147.34 98.70 148.22 C 92.93 148.14 87.94 144.62 85.06 139.79 C 85.43 139.77 85.81 139.76 86.19 139.76 C 87.81 143.13 90.80 145.70 94.40 146.74 C 102.36 150.09 111.90 141.77 110.70 133.48 Z" />
<path fill="#636363" d=" M 17.41 135.04 C 17.75 134.74 18.42 134.16 18.76 133.86 C 18.82 137.71 19.21 141.55 19.65 145.37 C 22.50 147.68 26.13 147.77 29.39 146.30 C 30.64 147.82 31.81 149.40 32.96 151.01 C 31.94 152.39 30.41 153.14 28.70 152.62 C 23.12 151.41 17.38 151.62 11.80 150.44 C 7.90 149.79 3.93 150.12 0.00 150.02 L 0.00 142.71 C 4.38 143.28 8.78 143.59 13.18 143.98 C 14.72 144.19 16.25 144.48 17.79 144.76 C 17.92 141.51 17.75 138.27 17.41 135.04 Z" />
<path fill="#658c71" d=" M 18.76 133.86 C 23.51 136.88 25.86 142.13 29.39 146.30 C 26.13 147.77 22.50 147.68 19.65 145.37 C 19.21 141.55 18.82 137.71 18.76 133.86 Z" />
<path fill="#f80500" d=" M 92.24 138.00 C 94.45 134.50 98.90 132.19 102.97 133.83 C 105.44 134.81 105.28 138.84 102.96 139.91 C 99.70 142.54 93.81 142.50 92.24 138.00 Z" />
<path fill="#444444" d=" M 0.00 154.02 C 8.09 154.48 15.97 156.45 24.02 157.25 C 27.38 157.54 30.67 158.32 33.84 159.46 C 34.11 158.70 34.38 157.94 34.65 157.17 C 34.84 157.92 35.21 159.42 35.39 160.17 C 35.90 158.28 36.59 156.44 37.68 154.81 C 37.24 159.86 37.08 164.93 37.17 170.00 L 23.07 170.00 C 21.16 166.96 17.46 167.71 14.43 167.24 C 9.63 166.60 4.88 165.33 0.00 165.68 L 0.00 154.02 Z" />
<path fill="#e6e6e6" d=" M 115.84 163.74 C 126.73 161.29 138.85 163.26 147.86 170.00 L 102.50 170.00 C 105.86 166.17 111.08 164.86 115.84 163.74 Z" />
<path fill="#2f2f2f" d=" M 0.00 165.68 C 4.88 165.33 9.63 166.60 14.43 167.24 C 17.46 167.71 21.16 166.96 23.07 170.00 L 0.00 170.00 L 0.00 165.68 Z" />
</svg>
